<mxfile host="app.diagrams.net" modified="2023-05-06T02:54:27.710Z" agent="Mozilla/5.0 (Windows NT 10.0; Win64; x64) AppleWebKit/537.36 (KHTML, like Gecko) Chrome/114.0.0.0 Safari/537.36 Edg/114.0.0.0" etag="AATFjzNXaxKdXOEABEtI" version="21.2.9" type="github">
  <diagram id="wFE0QG_FPsp0jaGvCLVb" name="Page-1">
    <mxGraphModel dx="412" dy="780" grid="1" gridSize="10" guides="1" tooltips="1" connect="1" arrows="1" fold="1" page="1" pageScale="1" pageWidth="850" pageHeight="1100" math="0" shadow="0">
      <root>
        <mxCell id="0" />
        <mxCell id="1" parent="0" />
        <object label="Task 3&lt;br&gt;&lt;span style=&quot;font-weight: normal&quot;&gt;&lt;i&gt;&lt;font style=&quot;font-size: 10px&quot;&gt;%status%&lt;/font&gt;&lt;/i&gt;&lt;/span&gt;" placeholders="1" id="lZpiqsjUjbD0tcQSVwL9-1">
          <mxCell style="whiteSpace=wrap;html=1;strokeWidth=2;fillColor=swimlane;fontStyle=1;spacingTop=0;rounded=1;arcSize=9;points=[];sketch=1;fontFamily=Permanent Marker;hachureGap=8;fillWeight=1;" vertex="1" parent="1">
            <mxGeometry x="80" y="140" width="80" height="50" as="geometry" />
          </mxCell>
        </object>
      </root>
    </mxGraphModel>
  </diagram>
</mxfile>
